<?xml version="1.0"?>
<svg xmlns="http://www.w3.org/2000/svg" xmlns:xlink="http://www.w3.org/1999/xlink" id="Gradient" viewBox="0 0 512 512" width="512" height="512"><defs><linearGradient id="linear-gradient" x1="256" y1="496" x2="256" y2="16" gradientUnits="userSpaceOnUse"><stop offset="0" stop-color="#12c2e9"/><stop offset="0.5" stop-color="#c471ed"/><stop offset="1" stop-color="#f64f59"/></linearGradient></defs><path d="M488,288H448V136h-.006a7.95,7.95,0,0,0-.233-1.94l-16-64A8,8,0,0,0,424,64H280v.09L236.613,33.464a8,8,0,0,0-9.226,0L184,64.09V64H144V32a8,8,0,0,0,0-16H80a8,8,0,0,0,0,16V64H40a8,8,0,0,0-7.761,6.06l-16,64a7.95,7.95,0,0,0-.233,1.94H16V488a8,8,0,0,0,8,8H488a8,8,0,0,0,8-8V296A8,8,0,0,0,488,288ZM432,144V288H320V144ZM256,448H208V352h48Zm16,16v16H192V464Zm8-16h-8V344a8,8,0,0,0-8-8H200a8,8,0,0,0-8,8V448h-8a8,8,0,0,0-8,8v24H160V304H304V480H288V456A8,8,0,0,0,280,448Zm24-304V288H160V144ZM417.754,80l12,48H370.539l-68-48ZM232,49.792,342.794,128H121.206ZM96,32h32V64H96ZM46.246,80H161.461l-68,48H34.246ZM144,144V288H32V144ZM32,304H144V480H32Zm416,48H352V336h96Zm-96,16h96v16H352Zm0,32h96v16H352Zm0,32h96v16H352Zm0,48V464h96v16Zm128,0H464V328a8,8,0,0,0-8-8H344a8,8,0,0,0-8,8V480H320V304H480ZM216,400a8,8,0,1,1,8,8A8,8,0,0,1,216,400Zm48-240H200a8,8,0,0,0-8,8v96a8,8,0,0,0,8,8h64a8,8,0,0,0,8-8V168A8,8,0,0,0,264,160Zm-8,48H240V176h16Zm-32-32v32H208V176Zm-16,48h16v32H208Zm32,32V224h16v32ZM120,336H56a8,8,0,0,0-8,8v96a8,8,0,0,0,8,8h64a8,8,0,0,0,8-8V344A8,8,0,0,0,120,336ZM80,352v32H64V352ZM64,400H80v32H64Zm48,32H96V400h16Zm0-48H96V352h16Zm8-224H56a8,8,0,0,0-8,8v96a8,8,0,0,0,8,8h64a8,8,0,0,0,8-8V168A8,8,0,0,0,120,160Zm-8,48H96V176h16ZM80,176v32H64V176ZM64,224H80v32H64Zm32,32V224h16v32Zm312-96H344a8,8,0,0,0-8,8v96a8,8,0,0,0,8,8h64a8,8,0,0,0,8-8V168A8,8,0,0,0,408,160Zm-8,48H384V176h16Zm-32-32v32H352V176Zm-16,48h16v32H352Zm32,32V224h16v32Z" style="fill:url(#linear-gradient)"/></svg>
